<?xml version="1.0" standalone="no"?>
<!DOCTYPE svg PUBLIC "-//W3C//DTD SVG 20010904//EN"
 "http://www.w3.org/TR/2001/REC-SVG-20010904/DTD/svg10.dtd">
<svg version="1.0" xmlns="http://www.w3.org/2000/svg"
 width="410.000000pt" height="410.000000pt" viewBox="0 0 410.000000 410.000000"
 preserveAspectRatio="xMidYMid meet">
<metadata>
Created by potrace 1.14, written by Peter Selinger 2001-2017
</metadata>
<g transform="translate(0.000000,410.000000) scale(0.100000,-0.100000)"
fill="#000000" stroke="none">
<path d="M1 2050 l0 -2050 1999 0 c1895 0 1999 1 2004 18 3 9 7 21 8 27 2 6
-23 9 -64 7 -56 -2 -68 0 -68 13 0 12 13 15 68 15 84 0 100 -9 84 -45 -16 -36
-17 -35 28 -35 l40 0 0 2050 0 2050 -34 0 c-28 0 -35 -4 -40 -26 -4 -14 -27
-47 -51 -73 -25 -27 -45 -51 -45 -55 0 -3 25 -6 55 -6 30 0 55 -4 55 -10 0 -6
-33 -10 -80 -10 -44 0 -80 3 -80 7 0 3 29 37 65 74 36 37 65 74 65 83 0 14
-34 16 -328 16 l-328 0 -11 -30 c-8 -23 -8 -33 3 -47 19 -26 17 -60 -6 -83
-27 -27 -100 -28 -123 -2 -24 26 -22 74 4 90 19 12 20 15 5 31 -9 10 -16 23
-16 29 0 8 -30 12 -100 12 -70 0 -100 -4 -100 -12 0 -6 -8 -20 -17 -30 -16
-18 -15 -19 5 -34 28 -19 29 -65 3 -89 -19 -16 -42 -17 -128 -4 -20 3 -15 63
7 92 17 22 18 26 5 37 -8 7 -15 19 -15 26 0 12 -49 14 -280 14 l-280 0 0 -51
c0 -42 3 -50 17 -47 9 2 20 18 25 35 5 18 18 38 31 44 l22 12 -22 -25 c-31
-33 -29 -38 11 -38 40 0 60 -21 52 -54 -9 -35 -42 -43 -77 -17 -15 12 -34 21
-42 21 -25 0 -37 24 -37 72 0 26 -4 48 -9 48 -5 0 -23 -17 -39 -37 -17 -21
-34 -35 -38 -30 -4 4 5 21 21 37 l29 30 -466 0 -466 0 -18 -27 c-10 -16 -28
-48 -41 -73 -23 -47 -46 -80 -56 -80 -6 0 50 103 78 142 8 13 15 26 15 30 0 5
-292 8 -650 8 l-649 0 0 -2050z m3735 2010 c0 -13 -5 -19 -14 -15 -7 3 -19 5
-25 5 -12 1 21 30 33 30 3 0 6 -9 6 -20z m-2666 -49 c0 -48 3 -60 18 -64 9 -3
-1 -5 -23 -5 -22 0 -32 2 -22 5 13 3 17 15 17 54 0 27 -4 49 -10 49 -5 0 -10
5 -10 10 0 6 7 10 15 10 12 0 15 -13 15 -59z m2668 -18 c2 -21 8 -41 15 -45 7
-4 -6 -7 -28 -7 -22 1 -32 3 -22 6 12 3 17 15 17 44 0 50 15 51 18 2z m-3328
-43 c0 -5 -10 -10 -22 -9 -22 0 -22 1 -3 9 11 5 21 9 23 9 1 1 2 -3 2 -9z
m-135 -10 c3 -6 -1 -7 -9 -4 -18 7 -21 14 -7 14 6 0 13 -4 16 -10z m392 -16
c1 -18 -2 -23 -9 -16 -6 6 -8 18 -5 26 9 22 12 20 14 -10z m-395 -56 c-8 -8
-9 -4 -5 13 4 13 8 18 11 10 2 -7 -1 -18 -6 -23z m381 12 c3 -11 1 -18 -4 -14
-5 3 -9 12 -9 20 0 20 7 17 13 -6z m-429 -6 c3 -8 2 -12 -4 -9 -6 3 -10 10
-10 16 0 14 7 11 14 -7z m1718 -34 c67 0 147 -88 152 -168 2 -33 7 -39 46 -59
25 -12 53 -22 63 -22 32 -1 22 -56 -15 -83 -30 -21 -44 -23 -163 -25 l-129 -1
-28 -31 c-23 -25 -28 -41 -28 -81 0 -56 8 -64 44 -50 18 7 26 17 26 34 0 47
69 74 90 36 6 -12 21 -20 36 -20 19 0 25 -4 20 -15 -9 -23 30 -19 55 6 29 29
103 51 118 36 24 -24 8 -83 -39 -147 -14 -19 -32 -48 -40 -65 -8 -16 -23 -42
-33 -57 -14 -21 -17 -38 -12 -71 5 -33 3 -46 -9 -56 -9 -8 -16 -19 -16 -25 0
-6 -16 -21 -35 -34 -19 -12 -35 -27 -35 -32 0 -6 -5 -10 -11 -10 -6 0 -29 -13
-52 -29 -50 -35 -116 -56 -149 -48 -14 4 -59 42 -102 84 l-77 78 4 47 c2 26 1
49 -3 50 -3 2 -18 25 -33 52 -37 66 -60 159 -52 207 7 41 11 44 34 30 10 -7
23 -4 41 9 24 17 26 17 48 0 25 -20 28 -36 10 -43 -7 -3 -1 -6 15 -6 17 -1 27
4 27 13 0 8 12 24 26 35 30 24 26 51 -12 76 -23 15 -33 15 -91 4 -61 -12 -66
-12 -79 6 -18 24 -18 78 0 113 7 15 17 55 21 89 9 80 53 143 111 161 133 39
127 38 173 25 24 -7 61 -13 83 -13z m1376 13 c5 -10 7 -24 5 -30 -3 -7 3 -20
11 -29 20 -20 21 -58 1 -74 -14 -12 -13 -15 5 -35 24 -25 26 -67 5 -85 -11 -9
-14 -22 -10 -40 7 -33 -15 -60 -50 -60 -27 0 -55 34 -55 66 0 12 -7 27 -15 34
-21 17 -19 77 3 89 16 9 16 12 1 38 -25 42 -10 70 46 85 33 9 45 17 45 31 0
16 -6 18 -30 15 -16 -3 -30 -1 -30 4 0 16 59 8 68 -9z m458 4 c5 -13 -50 -122
-68 -133 -11 -7 3 21 39 78 12 21 23 40 23 43 0 3 -21 5 -46 5 -27 0 -43 4
-39 10 9 15 85 12 91 -3z m-2668 -28 c-3 -8 -7 -3 -11 10 -4 17 -3 21 5 13 5
-5 8 -16 6 -23z m-746 -44 c-6 -34 -12 -32 -12 6 0 16 4 28 9 25 4 -3 6 -17 3
-31z m946 -1 c18 -21 22 -37 22 -88 0 -80 -24 -116 -76 -116 -48 0 -70 14 -83
51 -45 130 55 242 137 153z m1665 27 c13 -5 29 -23 36 -39 16 -38 -2 -76 -59
-124 -22 -19 -40 -38 -40 -41 0 -4 27 -7 61 -7 37 0 58 -4 54 -10 -3 -5 -40
-10 -81 -10 -67 0 -74 2 -74 20 0 11 4 20 8 20 17 0 102 92 108 117 10 38 -19
56 -75 48 -33 -5 -42 -4 -39 7 4 11 26 19 70 27 4 0 18 -3 31 -8z m1030 2 c47
-8 30 -23 -27 -23 -51 0 -54 -2 -59 -27 -7 -37 -2 -43 39 -43 70 0 97 -77 43
-122 -30 -26 -119 -23 -119 3 0 6 21 7 49 3 45 -6 50 -4 66 20 14 22 16 32 7
51 -10 22 -18 25 -62 25 l-50 0 0 54 c0 44 4 55 18 59 23 6 61 6 95 0z m-3316
-9 c-3 -3 -12 -4 -19 -1 -8 3 -5 6 6 6 11 1 17 -2 13 -5z m2166 -1 c-7 -2 -19
-2 -25 0 -7 3 -2 5 12 5 14 0 19 -2 13 -5z m-211 -25 c-7 -7 -12 -8 -12 -2 0
6 3 14 7 17 3 4 9 5 12 2 2 -3 -1 -11 -7 -17z m-1524 -24 c-3 -14 -5 -12 -10
9 -3 19 -2 25 4 19 6 -6 8 -18 6 -28z m377 -67 c-20 -40 -48 -92 -61 -117 -13
-25 -24 -52 -24 -60 0 -20 -29 -99 -30 -81 0 8 4 28 9 45 6 17 19 63 31 103
23 78 103 224 108 197 2 -8 -13 -48 -33 -87z m-1048 71 c-3 -8 -6 -5 -6 6 -1
11 2 17 5 13 3 -3 4 -12 1 -19z m253 -32 c-7 -9 -22 -15 -34 -15 -20 1 -20 2
-1 6 32 8 39 20 25 40 -13 17 -13 17 5 1 15 -14 16 -20 5 -32z m2167 2 c-3 -8
-6 -5 -6 6 -1 11 2 17 5 13 3 -3 4 -12 1 -19z m-202 -3 c6 -2 -11 -4 -37 -4
-27 -1 -48 3 -48 7 0 7 62 5 85 -3z m753 -112 c-1 -44 -2 -45 -5 -10 -2 20
-10 37 -16 37 -7 0 -6 4 3 10 8 5 16 10 18 10 1 0 1 -21 0 -47z m-748 -1 c0
-9 -7 -26 -16 -37 -13 -18 -14 -17 -8 13 4 21 2 38 -7 49 -13 15 -12 15 9 4
12 -6 22 -19 22 -29z m1095 18 c16 -18 16 -20 -4 -54 -12 -18 -28 -37 -36 -40
-27 -10 -16 -25 23 -29 30 -3 28 -4 -15 -5 -29 -1 -53 1 -53 5 0 3 18 21 40
40 58 50 52 102 -9 86 -12 -3 -21 -1 -21 6 0 19 56 12 75 -9z m-3098 -80 c15
0 15 -1 1 -12 -9 -7 -18 -20 -21 -28 -4 -10 -6 -7 -6 8 -1 18 -7 22 -36 22
-45 0 -44 14 3 63 l37 38 3 -45 c2 -35 7 -46 19 -46z m-300 48 c-3 -8 -6 -5
-6 6 -1 11 2 17 5 13 3 -3 4 -12 1 -19z m750 -20 c-3 -8 -6 -5 -6 6 -1 11 2
17 5 13 3 -3 4 -12 1 -19z m-714 -62 c25 -1 32 -4 26 -12 -18 -22 -79 2 -79
31 0 6 4 4 9 -4 5 -8 25 -15 44 -15z m2264 -12 c-3 -3 -12 -4 -19 -1 -8 3 -5
6 6 6 11 1 17 -2 13 -5z m346 -39 c-2 -5 -28 -11 -58 -13 -53 -3 -55 -4 -55
-31 0 -26 4 -29 42 -34 76 -10 102 -84 47 -129 -27 -23 -107 -25 -115 -3 -4 8
-17 15 -29 15 -41 0 -75 57 -45 75 5 3 7 19 4 34 -5 23 -2 32 15 40 12 7 29
11 39 9 10 -2 16 2 14 11 -7 35 6 42 75 39 39 -2 67 -7 66 -13z m295 9 c33 -9
52 -54 52 -124 0 -51 -4 -65 -25 -85 -34 -35 -86 -34 -114 1 -17 21 -21 41
-21 93 1 67 9 88 45 109 23 13 32 14 63 6z m-2002 -25 c15 -17 19 -36 19 -95
0 -84 -11 -101 -67 -111 -30 -4 -41 -1 -62 20 -22 22 -26 35 -26 87 0 60 11
97 34 112 23 16 83 8 102 -13z m2711 -6 c13 -19 18 -47 18 -91 0 -58 -3 -67
-28 -88 -36 -31 -71 -31 -102 0 -31 31 -39 64 -30 122 9 59 34 84 85 84 32 0
43 -5 57 -27z m-3624 -13 c33 0 46 -13 57 -51 10 -33 -2 -99 -18 -99 -4 0 -16
-3 -28 -6 -33 -9 -54 20 -54 76 0 27 5 52 10 55 6 4 8 16 5 28 -2 12 -2 16 1
10 3 -7 15 -13 27 -13z m1642 10 c3 -5 0 -10 -8 -10 -8 0 -30 -3 -48 -6 -32
-5 -33 -5 -15 10 22 18 62 21 71 6z m-355 -10 c0 -5 -15 -10 -32 -10 -25 0
-29 3 -18 10 20 13 50 13 50 0z m-1016 -22 c31 -44 14 -123 -29 -134 -39 -10
-65 19 -65 73 0 72 60 110 94 61z m2473 16 c-3 -3 -12 -4 -19 -1 -8 3 -5 6 6
6 11 1 17 -2 13 -5z m638 -4 c-3 -5 -22 -10 -41 -10 -28 0 -35 -4 -32 -17 2
-9 18 -21 35 -25 45 -12 56 -53 23 -80 -26 -21 -71 -21 -78 1 -3 9 2 11 17 6
31 -9 61 3 61 26 0 21 -17 31 -53 33 -12 1 -22 7 -21 14 1 6 2 23 3 37 1 23 5
25 47 25 27 0 43 -4 39 -10z m-1110 -19 c3 -5 1 -12 -5 -16 -5 -3 -10 1 -10 9
0 18 6 21 15 7z m-2405 -47 c0 -8 -4 -13 -9 -9 -6 3 -15 -4 -22 -16 -10 -20
-9 -21 14 -15 14 3 29 2 32 -4 6 -10 -7 -14 -35 -11 -41 5 -43 11 -15 41 33
35 35 35 35 14z m2872 -34 c2 -22 1 -40 -3 -40 -4 0 -9 18 -11 40 -2 22 -1 40
3 40 4 0 9 -18 11 -40z m-465 -12 c-3 -7 -5 -2 -5 12 0 14 2 19 5 13 2 -7 2
-19 0 -25z m-2404 -170 c7 -4 -1 -7 -18 -7 -16 0 -24 3 -17 6 6 2 12 20 12 39
0 20 -5 34 -12 34 -9 0 -8 4 2 10 12 8 16 2 18 -33 2 -23 9 -45 15 -49z m118
85 c-9 -4 -2 -10 20 -17 29 -10 34 -16 34 -43 0 -17 3 -35 8 -39 14 -14 7 -43
-15 -64 -24 -22 -64 -27 -71 -7 -8 24 5 37 37 36 l31 -1 -30 -8 -30 -9 30 2
c23 2 31 7 33 24 3 17 -3 24 -24 29 -22 6 -24 8 -10 16 32 18 14 46 -26 39 -5
0 -8 10 -8 24 0 17 5 25 18 24 13 0 13 -2 3 -6z m2472 0 c-7 -2 -21 -2 -30 0
-10 3 -4 5 12 5 17 0 24 -2 18 -5z m307 -1 c0 -5 -13 -7 -30 -4 -16 2 -30 6
-30 8 0 2 14 4 30 4 17 0 30 -4 30 -8z m-282 -32 c9 -14 9 -26 3 -39 -14 -26
-6 -30 38 -18 46 12 64 6 87 -28 16 -25 16 -29 2 -53 -15 -24 -14 -28 4 -53
18 -25 19 -28 4 -56 -17 -35 -33 -43 -82 -43 -28 0 -35 -4 -40 -25 -11 -45
-74 -62 -94 -26 -19 36 -12 98 14 125 13 15 28 26 35 26 6 0 11 10 12 23 0 18
2 19 7 5 5 -11 12 -14 20 -9 25 15 -10 31 -51 22 -20 -5 -34 -5 -32 0 3 4 0
17 -7 28 -9 14 -9 26 -1 43 8 17 8 30 0 43 -8 15 -5 22 13 37 29 24 52 23 68
-2z m448 8 c3 -4 -11 -8 -30 -8 -29 0 -36 -4 -36 -20 0 -12 7 -20 18 -20 10 0
28 -7 40 -16 26 -18 30 -75 7 -94 -14 -11 -13 -15 6 -28 19 -13 20 -20 14 -70
-4 -31 -11 -66 -15 -78 -18 -47 -82 -38 -95 13 -3 15 -11 31 -17 34 -6 4 -2
15 11 28 11 11 21 26 21 32 0 7 15 10 40 7 22 -2 40 -1 40 2 -1 16 -19 30 -43
32 -30 3 -37 24 -9 31 13 4 12 5 -5 6 -12 0 -25 6 -29 13 -5 8 0 9 15 5 32 -8
51 2 51 25 0 19 -4 20 -50 15 -48 -6 -69 6 -35 19 9 4 15 19 15 38 0 18 3 36
7 40 9 9 73 4 79 -6z m61 -25 c-3 -10 -5 -4 -5 12 0 17 2 24 5 18 2 -7 2 -21
0 -30z m56 -24 c-5 -5 -7 7 -4 29 5 34 6 35 9 8 2 -16 0 -32 -5 -37z m-2793
-82 c11 -3 23 -1 26 4 13 22 24 5 23 -38 0 -27 -3 -41 -6 -33 -3 8 -11 18 -17
22 -8 5 -7 8 2 8 6 0 12 7 12 15 0 22 -21 18 -27 -5 -3 -11 -10 -20 -15 -20
-6 0 -8 7 -4 15 4 11 -2 15 -24 15 -17 0 -30 5 -30 10 0 6 5 10 10 10 15 0 12
87 -2 93 -9 3 -7 9 7 20 19 15 20 14 23 -48 2 -53 6 -64 22 -68z m287 101 c-3
-7 -5 -2 -5 12 0 14 2 19 5 13 2 -7 2 -19 0 -25z m2196 -3 c-9 -19 -18 -33
-21 -31 -4 5 26 66 33 66 3 0 -3 -16 -12 -35z m-1823 -40 c-3 -5 -25 -10 -50
-10 -43 0 -45 -1 -48 -31 -3 -29 -1 -32 37 -38 100 -16 87 -146 -14 -146 -17
0 -40 7 -51 15 -18 15 -16 15 24 10 52 -8 92 13 92 49 0 34 -24 49 -75 48
l-45 -1 0 53 c0 29 3 56 7 60 11 11 129 2 123 -9z m2689 -63 c-2 -65 4 -82 29
-83 12 0 11 -3 -5 -9 -15 -6 -23 -18 -23 -34 0 -14 -4 -28 -10 -31 -6 -4 -10
7 -10 24 0 31 0 31 -55 31 -46 0 -55 3 -55 18 0 18 106 142 122 142 5 0 8 -26
7 -58z m-3728 11 c12 -16 12 -17 -1 -7 -8 7 -24 14 -35 17 -19 4 -19 5 1 6 12
0 28 -7 35 -16z m2862 10 c-7 -2 -19 -2 -25 0 -7 3 -2 5 12 5 14 0 19 -2 13
-5z m300 0 c-7 -2 -19 -2 -25 0 -7 3 -2 5 12 5 14 0 19 -2 13 -5z m290 0 c-7
-2 -21 -2 -30 0 -10 3 -4 5 12 5 17 0 24 -2 18 -5z m-2594 -50 l-2 -48 -6 40
c-7 38 -5 55 5 55 2 0 3 -21 3 -47z m-878 -7 l-23 -24 28 -5 c24 -3 21 -4 -10
-6 l-40 -1 29 30 c16 17 31 30 34 30 2 0 -6 -11 -18 -24z m696 0 c-7 -14 -13
-23 -15 -21 -7 6 9 45 18 45 4 0 3 -11 -3 -24z m2760 18 c-3 -3 -12 -4 -19 -1
-8 3 -5 6 6 6 11 1 17 -2 13 -5z m-296 -28 c-10 -12 -7 -15 16 -19 22 -3 20
-4 -11 -6 -38 -1 -39 -1 -21 19 21 23 34 28 16 6z m-3011 -26 c0 -5 9 -10 20
-10 26 0 37 -27 21 -52 -9 -15 -9 -22 4 -34 19 -19 19 -23 -2 -46 -19 -21 -66
-24 -81 -5 -17 20 -8 118 12 132 13 10 14 14 4 18 -8 4 -7 6 5 6 9 1 17 -3 17
-9z m577 4 c-3 -3 -12 -4 -19 -1 -8 3 -5 6 6 6 11 1 17 -2 13 -5z m2156 -1
c-7 -2 -21 -2 -30 0 -10 3 -4 5 12 5 17 0 24 -2 18 -5z m574 1 c-3 -3 -12 -4
-19 -1 -8 3 -5 6 6 6 11 1 17 -2 13 -5z m-3040 -31 c9 -12 9 -20 0 -34 -9 -14
-9 -21 1 -31 11 -11 16 -9 28 6 8 11 14 15 14 9 0 -7 -5 -15 -11 -18 -5 -4
-14 -18 -19 -31 -11 -28 -52 -41 -86 -25 -25 11 -32 39 -13 58 8 8 8 17 0 31
-25 47 51 78 86 35z m283 -38 c-7 -9 -10 -28 -7 -48 5 -28 4 -29 -5 -10 -12
25 -3 73 13 73 8 0 7 -5 -1 -15z m154 7 c-6 -4 -14 -14 -17 -22 -4 -10 -6 -8
-6 8 -1 15 5 22 17 22 10 0 13 -3 6 -8z m36 -22 c5 -34 -1 -58 -15 -64 -24 -9
-45 4 -44 28 1 15 3 16 6 4 2 -9 11 -19 19 -22 20 -8 34 32 22 64 -6 16 -6 22
1 15 5 -5 10 -17 11 -25z m1990 -3 c28 -7 36 -35 17 -54 -13 -14 -20 -14 -39
-4 -23 11 -23 11 -1 7 24 -4 49 17 38 34 -3 5 -15 10 -26 10 -13 0 -19 6 -18
23 1 15 3 17 6 6 2 -10 13 -19 23 -22z m315 23 c3 -5 1 -18 -5 -27 -11 -17
-11 -16 -5 1 3 11 0 23 -7 28 -9 5 -10 8 -1 8 6 0 15 -4 18 -10z m288 -52 c7
-4 -7 -8 -31 -8 l-42 0 16 25 c19 30 29 33 14 5 -9 -16 -8 -20 5 -20 10 0 15
11 16 33 l2 32 4 -30 c3 -16 10 -33 16 -37z m-2737 -14 c-3 -8 -11 -14 -18
-13 -10 0 -10 2 0 6 6 2 13 19 13 36 1 25 3 27 6 9 3 -13 2 -30 -1 -38z m-379
-90 c29 -18 33 -18 33 6 0 16 6 20 33 19 30 -2 30 -2 5 -6 -34 -5 -37 -30 -5
-36 19 -4 18 -4 -5 -6 -18 -1 -28 -7 -28 -16 0 -24 31 -31 46 -10 8 10 14 14
14 9 0 -16 -22 -34 -42 -34 -10 0 -18 -4 -18 -10 0 -5 -5 -9 -11 -7 -6 1 -14
-4 -16 -11 -3 -7 1 -13 8 -11 8 1 28 1 44 0 29 -2 29 -3 8 -13 -13 -6 -23 -15
-23 -19 0 -4 10 -9 23 -11 16 -2 22 -10 22 -28 0 -25 -1 -25 -102 -28 -94 -2
-103 -1 -103 15 0 11 14 27 30 36 17 10 30 25 30 34 0 8 14 31 30 50 17 18 30
40 30 47 0 22 -28 39 -55 34 -17 -4 -25 -1 -25 9 0 16 42 9 77 -13z m372 4
c-2 -13 0 -29 5 -36 11 -18 -12 -42 -38 -41 -20 1 -20 2 -1 6 31 8 38 19 20
37 -9 9 -12 16 -6 16 21 0 11 29 -11 33 -19 4 -18 4 5 6 24 1 28 -3 26 -21z
m317 -9 c14 -15 15 -24 6 -41 -10 -23 -11 -22 -11 5 -1 36 -39 56 -76 39 -29
-13 -33 -43 -9 -66 8 -9 11 -16 5 -16 -21 0 -50 38 -44 59 13 50 91 62 129 20z
m1542 24 c-16 -2 -28 -10 -28 -18 0 -8 12 -15 28 -17 23 -3 27 -7 27 -37 l0
-33 47 51 c26 28 52 51 57 51 7 0 11 -27 11 -70 0 -56 3 -70 15 -70 8 0 15 -7
15 -15 0 -8 -7 -15 -15 -15 -10 0 -15 -10 -15 -30 0 -16 -5 -30 -10 -30 -6 0
-13 14 -16 30 -6 27 -10 30 -45 30 -21 0 -40 -4 -43 -9 -3 -4 -17 -6 -32 -3
-16 3 -29 -1 -35 -9 -7 -11 -9 -9 -9 8 0 25 24 53 46 53 8 0 14 5 14 10 0 6
-5 10 -11 10 -6 0 -17 6 -25 14 -12 13 -11 15 8 18 35 5 29 34 -6 30 -23 -3
-27 0 -22 13 3 9 6 23 6 31 0 9 10 14 33 13 30 -2 30 -2 5 -6z m466 -4 c44
-20 60 -115 32 -184 -12 -27 -22 -35 -52 -41 -34 -6 -40 -4 -66 25 -23 26 -28
40 -28 86 0 63 14 99 44 113 28 14 40 14 70 1z m393 5 c-3 -3 -12 -4 -19 -1
-8 3 -5 6 6 6 11 1 17 -2 13 -5z m316 -9 c-2 -5 -25 -10 -52 -10 -27 0 -52 -2
-54 -5 -3 -3 -3 -18 0 -33 5 -25 10 -28 37 -25 36 4 38 18 5 35 -22 12 -22 13
-3 13 26 0 44 -18 44 -44 0 -12 7 -30 15 -40 48 -63 -25 -133 -112 -110 -41
11 -26 27 18 20 30 -5 48 -2 65 9 29 19 33 41 5 25 -28 -14 -66 -13 -80 4 -13
16 -27 137 -18 161 6 13 19 15 69 13 36 -2 62 -7 61 -13z m-3630 -27 c15 -2
23 -11 24 -28 l3 -25 -10 24 c-7 15 -16 22 -28 19 -14 -4 -18 1 -19 21 0 14 1
18 4 9 2 -9 14 -18 26 -20z m137 23 c0 -6 -4 -13 -10 -16 -5 -3 -10 1 -10 9 0
9 5 16 10 16 6 0 10 -4 10 -9z m585 -30 c2 -17 0 -31 -5 -31 -9 0 -19 57 -12
65 8 8 12 0 17 -34z m-745 -30 c0 -5 8 -12 18 -14 14 -4 14 -5 1 -6 -9 0 -22
6 -29 14 -9 10 -9 15 -1 15 6 0 11 -4 11 -9z m753 -18 c-7 -2 -19 -2 -25 0 -7
3 -2 5 12 5 14 0 19 -2 13 -5z m846 -62 c71 -35 84 -39 140 -35 34 2 71 9 82
15 11 6 27 8 34 5 8 -3 15 0 17 5 5 14 58 -29 58 -46 0 -7 9 -15 19 -18 28 -7
55 -75 42 -104 -7 -15 -7 -32 0 -53 8 -22 8 -43 0 -75 -6 -24 -11 -66 -11 -92
0 -28 -7 -58 -16 -71 -14 -20 -14 -22 0 -22 10 0 16 -9 16 -21 0 -13 5 -19 13
-16 18 7 43 14 34 10 -4 -3 -5 -8 -2 -13 3 -5 -6 -17 -20 -28 -14 -11 -23 -26
-20 -34 6 -15 -89 -63 -105 -53 -5 3 -12 -1 -17 -8 -8 -13 -33 -28 -96 -58
-68 -32 -341 5 -575 78 -83 26 -110 46 -126 99 -9 29 29 115 47 108 9 -3 17 3
20 17 5 19 9 20 21 10 21 -18 33 -7 41 36 15 79 100 203 140 203 7 0 20 6 27
13 7 6 41 26 76 42 l63 30 -6 58 c-9 71 -4 72 104 18z m-777 12 c-5 -10 -8
-29 -6 -43 3 -19 2 -22 -6 -10 -13 20 -12 44 2 58 17 17 20 15 10 -5z m-926
-7 c19 -14 19 -15 -3 -45 l-23 -30 23 -4 c13 -2 5 -5 -17 -6 l-40 -1 32 31
c43 42 41 56 -5 50 -7 -1 -13 3 -13 9 0 14 23 12 46 -4z m114 4 c0 -5 -5 -10
-11 -10 -5 0 -7 5 -4 10 3 6 8 10 11 10 2 0 4 -4 4 -10z m40 -20 c0 -9 -9 -25
-20 -35 -11 -10 -17 -22 -14 -26 3 -5 -3 -9 -12 -9 -14 0 -12 6 11 30 25 26
28 33 17 50 -10 16 -9 18 3 14 8 -4 15 -14 15 -24z m570 15 c8 -9 9 -15 2 -15
-6 0 -13 4 -17 10 -3 5 -13 7 -23 4 -14 -5 -15 -4 -2 5 20 14 25 14 40 -4z
m137 3 c11 -18 13 -77 3 -83 -4 -3 -6 3 -3 13 3 12 -4 22 -21 30 -27 12 -35
37 -13 45 20 9 25 8 34 -5z m-132 -49 c9 -26 -2 -39 -30 -39 -29 0 -37 12 -30
43 5 19 12 23 30 19 14 -2 27 -13 30 -23z m92 -6 c-4 -3 -2 -12 4 -20 7 -8 8
-13 1 -13 -12 0 -23 26 -15 34 4 3 9 6 11 6 3 0 2 -3 -1 -7z m1792 -71 c5 -10
12 -32 14 -48 3 -22 9 -28 23 -26 41 8 74 7 74 -3 0 -5 -10 -10 -22 -10 -13 0
-34 -5 -47 -9 -29 -10 -41 5 -41 51 0 33 -23 55 -47 46 -7 -3 -13 0 -13 6 0
18 49 12 59 -7z m419 11 c-33 -4 -38 -8 -38 -29 0 -15 6 -24 16 -24 11 0 14 5
10 18 -4 9 5 2 19 -15 15 -18 33 -33 41 -33 21 0 17 -30 -11 -79 -29 -50 -31
-61 -10 -61 20 0 19 -19 -5 -55 -11 -16 -20 -40 -20 -53 0 -14 -9 -27 -25 -34
-35 -16 -31 -25 18 -47 25 -12 48 -31 55 -46 15 -32 16 -121 2 -130 -5 -3 -10
3 -10 15 0 12 -4 18 -10 15 -5 -3 -10 3 -10 14 0 10 -6 21 -12 24 -7 2 -10 8
-6 12 4 4 14 2 23 -5 13 -10 15 -9 15 8 0 33 -11 52 -30 52 -13 0 -17 -5 -13
-21 5 -17 1 -16 -27 10 -28 25 -31 32 -20 45 7 9 8 16 3 16 -13 0 -14 105 -2
138 7 17 6 28 -1 32 -8 5 -6 9 5 14 14 5 15 9 5 21 -10 12 -9 15 4 15 9 0 15
-3 15 -7 -4 -25 4 -24 21 2 27 41 26 57 -2 47 -26 -10 -58 -5 -58 8 0 5 7 7
15 4 21 -9 67 5 60 17 -5 7 -11 6 -21 -1 -10 -9 -22 -9 -49 0 -35 12 -48 30
-20 30 9 0 15 9 15 23 0 55 10 67 54 65 l41 -1 -37 -4z m458 0 c-4 -5 -16 -8
-27 -8 -10 0 -19 -3 -19 -7 0 -5 0 -14 0 -22 0 -7 13 -16 29 -19 31 -7 45 -29
35 -59 -7 -23 -38 -36 -71 -30 -23 4 -33 32 -12 32 7 0 9 10 4 28 -11 42 -8
74 7 83 16 11 64 12 54 2z m204 -43 l0 -40 40 0 c48 0 50 -10 14 -82 -17 -34
-24 -59 -19 -76 4 -16 1 -28 -7 -33 -9 -6 -9 -12 4 -26 34 -39 -22 -90 -71
-64 -37 20 -17 151 23 151 6 0 20 14 29 30 l18 30 -35 0 c-34 0 -49 14 -24 22
19 7 -2 28 -28 28 -13 0 -24 5 -24 10 0 6 14 10 30 10 25 0 30 4 30 25 0 14
-5 25 -10 25 -12 0 10 29 23 30 4 0 7 -18 7 -40z m-2830 -16 c0 -31 -3 -34
-29 -34 -20 0 -36 -9 -49 -25 -11 -14 -23 -25 -27 -25 -3 0 12 22 34 48 23 27
41 56 41 65 0 10 5 14 15 11 9 -4 15 -19 15 -40z m-856 19 c4 -9 -2 -25 -14
-38 -26 -27 -25 -33 3 -38 13 -3 8 -5 -15 -6 -21 0 -38 2 -38 5 0 3 14 17 30
31 35 29 35 44 -1 54 l-24 7 26 1 c16 1 29 -6 33 -16z m137 -68 c-4 -17 -6
-17 -9 -3 -2 9 -15 18 -29 20 l-26 3 29 34 29 35 5 -35 c3 -18 3 -43 1 -54z
m282 -7 c7 -5 0 -8 -17 -8 -24 0 -26 2 -16 14 6 8 11 25 10 38 -1 13 -1 30 1
38 1 8 4 -5 6 -30 3 -24 10 -48 16 -52z m-82 42 c5 0 9 -6 9 -12 0 -8 -15 -14
-36 -16 -39 -2 -58 -16 -69 -51 -7 -22 -5 -23 24 -19 44 6 49 -8 6 -16 -30 -6
-35 -11 -35 -34 0 -35 26 -72 51 -72 10 0 19 4 19 9 0 14 54 20 68 8 26 -21
31 -43 17 -71 -8 -14 -12 -34 -9 -44 5 -16 5 -16 -6 1 -6 9 -22 17 -35 17 -13
0 -27 5 -30 10 -4 6 7 10 25 10 23 0 33 6 39 23 13 33 5 38 -52 31 -46 -5 -55
-3 -79 19 -20 18 -28 36 -28 59 0 60 19 106 50 125 17 9 30 21 30 26 0 5 7 6
16 3 9 -3 20 -6 25 -6z m497 -67 c-10 -2 -28 -2 -40 0 -13 2 -5 4 17 4 22 1
32 -1 23 -4z m-840 -35 c13 -13 16 -47 6 -72 -10 -26 -53 -20 -60 9 -14 57 20
97 54 63z m2735 -16 c9 -8 17 -19 17 -24 0 -11 -59 33 -59 45 -1 9 16 1 42
-21z m-2629 4 c-4 -10 2 -16 18 -18 32 -4 33 -52 1 -56 -29 -4 -46 28 -33 62
5 14 12 26 14 26 3 0 3 -6 0 -14z m256 -1 c7 -9 19 -14 26 -11 6 2 15 -5 18
-17 6 -25 7 -23 -21 -31 -17 -6 -23 -3 -23 8 0 9 -6 16 -12 16 -10 0 -9 3 1 9
10 7 8 12 -10 25 -17 12 -19 16 -7 16 8 0 21 -7 28 -15z m70 5 c0 -5 -4 -10
-10 -10 -5 0 -10 5 -10 10 0 6 5 10 10 10 6 0 10 -4 10 -10z m2430 -20 c10 0
20 -7 24 -15 9 -26 -5 -45 -33 -44 l-26 1 25 7 c31 9 33 35 3 39 -16 2 -23 10
-22 25 1 17 2 18 6 5 2 -10 13 -18 23 -18z m601 -14 c5 -6 9 -38 9 -73 0 -49
3 -63 15 -63 8 0 15 -4 15 -10 0 -5 -9 -10 -20 -10 -11 0 -20 -7 -20 -15 0
-21 -25 -29 -47 -16 -16 10 -15 10 6 8 13 -1 26 4 28 11 3 6 -2 12 -11 12 -20
0 -21 16 -1 24 23 8 18 26 -7 27 l-23 2 23 4 c26 5 33 53 7 53 -8 0 -15 7 -15
15 0 8 5 15 10 15 6 0 10 10 10 21 0 18 -2 19 -15 9 -8 -7 -15 -20 -16 -29 0
-11 -2 -12 -6 -3 -3 7 5 25 18 39 22 22 24 23 27 6 2 -10 8 -22 13 -27z m145
-3 c-1 -34 -4 -38 -29 -41 -30 -4 -46 20 -28 42 6 7 7 16 3 21 -4 4 3 2 16 -4
18 -10 23 -9 28 4 9 23 11 19 10 -22z m-2776 -3 c0 -5 -7 -10 -15 -10 -8 0
-15 5 -15 10 0 6 7 10 15 10 8 0 15 -4 15 -10z m-53 -18 c-10 -10 -17 -33 -17
-51 0 -18 -4 -30 -9 -27 -18 11 14 96 37 96 3 0 -2 -8 -11 -18z m1719 -67
c-24 -18 -21 -20 32 -20 70 0 63 -18 -14 -37 -38 -10 -102 -29 -144 -43 -41
-13 -109 -35 -150 -49 -41 -13 -83 -28 -92 -31 -10 -4 -18 -3 -18 3 0 5 18 17
39 25 22 9 42 20 45 25 3 5 32 20 63 32 85 33 124 53 115 62 -4 4 -25 3 -45
-3 -57 -15 -68 -5 -17 15 48 18 126 33 174 33 25 0 27 -2 12 -12z m-1646 -10
c0 -8 -2 -15 -4 -15 -2 0 -6 7 -10 15 -3 8 -1 15 4 15 6 0 10 -7 10 -15z
m-870 -4 c-18 -5 -26 -15 -28 -35 -2 -16 1 -33 6 -38 16 -16 41 3 45 35 l4 32
1 -31 c2 -39 -22 -63 -46 -47 -20 12 -26 36 -18 69 5 18 13 24 34 23 l27 -1
-25 -7z m171 -17 c9 -25 -9 -65 -31 -72 -12 -3 -11 -1 2 9 17 14 21 29 19 62
-1 20 -37 24 -44 5 -3 -8 -6 -5 -6 5 -1 27 49 19 60 -9z m3165 11 c3 -8 -4
-27 -16 -42 l-22 -28 24 -6 c20 -6 19 -7 -9 -8 -40 -1 -41 8 -8 39 32 31 32
48 -2 53 l-28 4 28 2 c16 0 30 -5 33 -14z m291 -1 c3 -9 -5 -27 -22 -44 l-27
-28 28 -5 c28 -4 28 -4 -3 -6 -40 -1 -41 8 -8 39 30 28 28 42 -6 51 -23 7 -23
7 4 8 16 1 30 -5 34 -15z m-2762 -24 c-3 -5 -13 -10 -21 -10 -8 0 -14 5 -14
10 0 6 9 10 21 10 11 0 17 -4 14 -10z m-746 -40 c0 -10 -3 -8 -9 5 -12 27 -12
43 0 25 5 -8 9 -22 9 -30z m3658 -32 c-2 -7 -13 -12 -25 -12 -16 1 -19 -2 -13
-14 5 -8 6 -23 3 -34 -3 -12 3 -25 17 -34 25 -18 28 -69 6 -101 -19 -27 -70
-38 -108 -24 -43 16 -32 29 22 23 42 -4 50 -1 65 19 22 33 20 43 -6 25 -25
-18 -74 -21 -83 -6 -4 6 8 10 30 10 23 0 38 5 42 15 8 22 -1 28 -47 28 l-40 0
0 58 0 59 71 0 c52 0 70 -3 66 -12z m-3359 -24 c20 -7 29 -13 20 -14 -21 0
-24 -26 -5 -33 7 -3 5 -6 -5 -6 -20 -1 -23 -12 -7 -28 8 -8 6 -19 -5 -42 -9
-17 -14 -31 -10 -31 4 0 -6 -10 -22 -22 -76 -60 -190 16 -124 82 11 11 20 25
20 30 0 12 10 13 30 1 21 -14 32 -3 19 20 -8 15 -7 24 2 35 10 13 10 17 -2 25
-18 12 39 1 89 -17z m3090 0 c31 -22 27 -47 -13 -85 -19 -19 -35 -36 -35 -40
0 -3 16 -5 35 -2 20 2 35 -1 35 -7 0 -5 -17 -10 -37 -10 -25 0 -33 -3 -24 -9
8 -5 11 -16 6 -30 -5 -18 -2 -24 14 -28 17 -4 21 -13 21 -46 0 -26 6 -44 18
-53 16 -13 16 -13 0 -14 -11 0 -18 -8 -18 -20 0 -11 -5 -20 -11 -20 -5 0 -8 4
-4 9 13 22 -14 19 -35 -4 l-22 -23 28 -5 c24 -3 21 -4 -10 -6 l-40 -1 27 28
c33 35 34 42 2 42 -30 0 -32 20 -5 45 l21 19 -23 13 -23 14 23 -6 c25 -7 44
22 22 35 -8 5 -9 9 -1 14 19 12 12 26 -14 26 -22 0 -24 2 -15 26 6 14 8 30 4
35 -3 5 0 9 5 9 14 0 14 57 0 62 -5 2 -7 11 -4 20 6 14 16 20 45 27 3 0 16 -6
28 -15z m-3310 -91 c16 -12 16 -12 0 -13 -11 0 -19 -8 -19 -22 l-2 -23 -4 23
c-4 18 -11 22 -45 22 -32 0 -39 3 -34 16 3 9 6 22 6 30 0 8 6 14 14 14 17 0
31 18 21 28 -3 3 -11 0 -16 -8 -9 -13 -10 -13 -6 0 2 8 17 17 33 20 28 5 29 3
32 -34 2 -22 11 -45 20 -53z m72 65 c-1 -28 -2 -30 -11 -15 -6 10 -8 25 -5 33
9 24 16 16 16 -18z m-250 7 c11 -13 9 -21 -8 -45 l-22 -29 23 -4 c12 -2 5 -5
-17 -6 l-40 -1 34 35 c35 36 34 49 -5 58 -19 4 -19 5 1 6 12 0 27 -6 34 -14z
m3289 -5 l-24 -19 26 -1 c18 0 28 -7 32 -19 10 -38 -43 -58 -62 -23 -18 34 4
81 38 82 8 0 3 -8 -10 -20z m321 10 c0 -17 -41 -92 -47 -86 -3 2 4 20 16 39
25 40 26 51 6 44 -8 -4 -17 -2 -20 3 -4 6 5 10 19 10 14 0 26 -5 26 -10z
m-2918 -28 c-12 -11 -19 -22 -15 -26 3 -3 1 -6 -5 -6 -7 0 -12 3 -12 7 0 11
43 53 48 48 3 -3 -4 -13 -16 -23z m25 -39 c-3 -3 -10 -2 -16 2 -7 4 -7 10 2
20 10 11 13 11 15 -2 2 -8 1 -17 -1 -20z m2593 -72 c0 -5 -9 -11 -20 -14 -27
-7 -25 -24 3 -23 16 1 23 -5 25 -23 6 -37 -26 -52 -52 -25 -22 21 -20 50 4 74
21 21 40 26 40 11z m-3342 -12 c-25 -14 -22 -28 3 -22 20 6 39 -10 39 -32 -1
-5 -5 -2 -11 8 -5 9 -17 17 -25 17 -20 0 -30 -30 -13 -42 12 -8 11 -9 -1 -5
-32 8 -19 88 14 87 6 0 3 -5 -6 -11z m182 -8 c-14 -28 -13 -39 8 -44 14 -4 13
-5 -4 -6 -11 0 -31 -12 -43 -25 l-23 -25 42 -3 c33 -2 45 -8 51 -24 15 -41
-64 -120 -85 -85 -3 4 6 6 19 3 15 -2 25 0 25 7 0 10 -12 13 -37 10 -11 -1
-22 32 -22 72 -1 25 8 47 29 75 36 48 37 52 3 57 -22 3 -20 4 10 6 34 1 37 -1
27 -18z m3432 -34 c4 -31 2 -47 -5 -44 -8 2 -12 54 -8 94 2 18 9 -7 13 -50z
m-3179 -24 c-6 -16 -20 -17 -25 -2 -5 16 -41 3 -56 -21 -11 -19 -10 -20 25
-20 21 0 46 -7 56 -14 16 -12 16 -15 -8 -50 l-24 -36 27 -6 c46 -10 48 -12 11
-13 -20 -1 -42 -8 -49 -16 -10 -12 -8 -16 14 -25 16 -6 26 -17 26 -29 0 -11 4
-22 9 -25 15 -10 22 25 9 43 -11 15 -10 15 6 0 16 -14 16 -20 5 -40 -11 -20
-38 -88 -39 -96 0 -2 11 -3 25 -3 25 0 35 -23 15 -35 -5 -3 -7 0 -4 8 4 11 -8
16 -47 21 -36 5 -60 15 -74 30 -16 17 -29 22 -49 19 -42 -8 -32 17 34 82 33
33 60 66 59 75 0 8 -13 25 -29 38 -23 18 -33 20 -54 12 -21 -8 -26 -7 -26 5 0
9 13 18 30 22 23 4 30 11 30 29 0 36 34 65 74 62 23 -1 32 -6 29 -15z m3332 7
c3 -5 -1 -23 -10 -40 -16 -31 -15 -32 9 -55 14 -13 26 -32 26 -42 0 -22 -25
-105 -40 -132 -10 -19 -8 -21 20 -21 20 0 30 -5 30 -15 0 -11 -11 -15 -40 -15
-29 0 -43 -5 -52 -20 -7 -11 -16 -20 -21 -20 -4 0 -3 9 3 20 10 18 8 20 -20
20 -16 0 -30 4 -30 10 0 5 -6 8 -12 6 -7 -1 -10 -1 -5 1 4 3 8 21 8 41 1 35 2
36 8 8 l6 -29 30 26 c29 26 29 26 7 27 -13 0 -20 4 -17 10 3 6 21 10 38 10 58
0 89 89 36 103 -13 4 -24 -1 -32 -14 -14 -23 -32 -25 -23 -3 5 13 2 15 -14 11
-13 -3 -20 0 -20 8 0 7 13 16 30 20 30 7 60 38 60 62 0 8 -14 13 -41 13 -24 0
-38 4 -34 10 8 13 92 13 100 0z m-415 -86 c0 -20 -40 -87 -47 -80 -3 3 4 20
16 39 27 44 27 45 -6 50 -26 4 -26 4 5 6 24 1 32 -3 32 -15z m-2895 -36 c-10
-13 -14 -16 -11 -8 3 8 9 24 13 35 4 11 8 14 11 7 2 -6 -4 -22 -13 -34z m3168
-40 c7 -4 -1 -8 -18 -8 -20 0 -26 3 -17 9 8 4 13 21 12 37 -3 46 3 53 7 9 3
-22 10 -43 16 -47z m-3433 -99 c0 -27 5 -42 16 -46 15 -5 15 -7 0 -15 -9 -5
-16 -18 -16 -28 0 -15 -6 -20 -27 -19 -25 2 -25 2 -5 6 38 7 23 37 -21 41 -20
2 -37 6 -37 10 0 4 14 24 31 45 30 37 30 37 7 38 -19 1 -18 3 7 8 41 10 45 6
45 -40z m3143 44 c3 -5 -6 -9 -19 -9 -13 -1 -21 2 -18 7 6 11 31 12 37 2z
m167 -68 c0 -52 3 -65 16 -65 8 0 12 -4 9 -10 -3 -5 -22 -10 -41 -10 -19 0
-34 5 -34 10 0 6 7 10 15 10 11 0 15 12 15 45 0 33 -4 45 -15 45 -20 0 -19 17
3 29 29 18 32 13 32 -54z m81 29 c-5 -16 -10 -21 -10 -12 -1 18 10 51 15 45 2
-1 -1 -16 -5 -33z m-235 -16 c8 -26 -19 -50 -44 -40 -15 5 -14 7 3 10 33 6 41
21 19 37 -16 12 -17 14 -2 15 9 0 20 -10 24 -22z m-3225 -121 c-10 -9 -11 -8
-5 6 3 10 9 15 12 12 3 -3 0 -11 -7 -18z m3211 -54 c8 -10 6 -13 -8 -13 -16 0
-19 7 -17 42 2 56 5 61 10 18 3 -19 9 -41 15 -47z m-2945 6 c14 -12 18 -39 5
-39 -4 0 -13 9 -20 20 -14 22 -61 27 -80 8 -20 -20 -14 -42 16 -60 19 -12 22
-18 10 -18 -9 0 -26 -12 -37 -27 -12 -14 -25 -23 -29 -19 -4 4 4 16 17 27 23
19 23 20 6 39 -22 24 -14 63 17 78 26 13 74 8 95 -9z m3382 0 c38 -36 13 -116
-48 -150 -62 -34 -53 -44 35 -39 43 2 54 -18 15 -26 -28 -6 -31 -10 -31 -43 0
-20 5 -42 11 -48 6 -6 11 -43 11 -83 0 -63 2 -73 19 -77 23 -6 26 -23 4 -23
-10 0 -15 -10 -15 -28 0 -41 -26 -72 -60 -72 -33 0 -41 10 -50 60 -4 24 -11
34 -22 32 -10 -1 -15 5 -14 20 1 13 -1 33 -6 46 -4 12 -3 22 2 22 5 0 10 -9
12 -21 2 -17 11 -10 52 38 l49 58 -42 3 c-23 2 -41 8 -41 15 0 7 16 29 35 51
41 45 43 53 13 53 -49 1 -58 4 -58 18 0 8 3 15 8 15 4 0 16 7 26 15 19 14 19
15 1 35 -14 15 -17 31 -13 70 3 27 1 50 -3 50 -16 0 -9 18 9 23 42 11 79 6
101 -14z m-3569 -8 c5 -11 10 -39 10 -62 0 -51 -30 -90 -69 -88 l-26 1 25 8
c16 5 19 8 8 9 -32 2 -48 67 -32 129 8 30 68 32 84 3z m3324 3 c17 -16 22 -99
8 -120 -10 -15 -46 -26 -65 -19 -36 14 -45 105 -15 143 14 17 53 15 72 -4z
m86 -10 c0 -2 -7 -4 -15 -4 -8 0 -15 4 -15 10 0 5 7 7 15 4 8 -4 15 -8 15 -10z
m-3576 -66 c8 -13 5 -22 -13 -42 l-23 -24 24 -5 c14 -3 9 -5 -16 -6 l-40 -1
32 33 c32 33 31 66 -2 54 -9 -4 -16 -2 -16 4 0 16 42 6 54 -13z m3598 -23 c10
-44 0 -59 -33 -52 -22 4 -22 4 4 6 31 1 37 24 10 40 -10 6 -12 11 -5 11 15 0
16 26 2 33 -6 3 -5 4 2 3 7 -1 16 -20 20 -41z m-3592 -112 c-1 -15 -49 -98
-50 -86 0 7 9 27 20 45 l20 33 -33 6 -32 6 38 2 c20 0 37 -2 37 -6z m140 -3
c0 -5 -11 -10 -24 -10 -29 0 -44 -33 -26 -55 8 -10 9 -15 2 -15 -15 0 -24 34
-16 64 5 20 12 26 35 26 16 0 29 -4 29 -10z m3345 0 c3 -6 -4 -10 -17 -10 -26
0 -48 -17 -48 -36 0 -7 8 -10 19 -7 55 14 88 -65 36 -89 -59 -27 -100 39 -68
109 17 37 63 57 78 33z m105 6 c0 -2 -11 -6 -25 -8 -13 -3 -22 -1 -19 3 5 9
44 13 44 5z m-53 -48 c-3 -8 -6 -5 -6 6 -1 11 2 17 5 13 3 -3 4 -12 1 -19z
m60 -20 c-3 -8 -6 -5 -6 6 -1 11 2 17 5 13 3 -3 4 -12 1 -19z m-3614 -160 c7
-4 -1 -7 -18 -7 -16 0 -24 3 -17 6 15 6 16 63 2 63 -6 0 -5 6 2 14 11 12 14 7
16 -27 2 -23 9 -45 15 -49z m3601 73 c3 -5 -3 -11 -15 -14 -16 -4 -18 -3 -8 9
13 16 16 17 23 5z m-2964 -41 c-11 -21 -41 -40 -62 -40 -7 0 2 14 20 30 38 35
58 40 42 10z m632 -26 c57 -20 132 -44 168 -53 81 -22 106 -35 126 -66 12 -18
25 -25 50 -25 44 0 146 -50 139 -68 -3 -8 17 -34 47 -61 53 -49 61 -81 18 -81
-21 0 -149 48 -164 61 -15 14 -66 11 -66 -4 0 -7 26 -34 58 -60 82 -67 111
-98 105 -113 -3 -9 -15 -11 -36 -7 -35 6 -130 55 -162 83 -24 21 -63 32 -70
20 -6 -10 27 -44 103 -108 29 -24 52 -51 52 -61 0 -28 -34 -31 -73 -7 -51 30
-158 105 -183 128 -15 13 -29 17 -46 13 -17 -4 -29 0 -43 15 -20 22 -77 50
-102 50 -25 0 -46 29 -39 54 9 38 -32 69 -101 73 -85 6 -111 19 -119 58 -3 18
-3 43 0 54 3 12 9 30 12 41 10 37 -14 21 -30 -20 -17 -43 -32 -55 -21 -17 15
51 28 77 41 77 8 0 14 5 14 11 0 6 6 9 13 6 6 -2 25 3 42 11 83 42 138 41 267
-4z m2293 26 c3 -5 1 -10 -4 -10 -6 0 -11 5 -11 10 0 6 2 10 4 10 3 0 8 -4 11
-10z m-2695 -45 c-13 -14 -28 -25 -33 -25 -6 0 0 11 13 25 13 14 28 25 33 25
6 0 0 -11 -13 -25z m-185 -35 c-16 -16 -34 -30 -39 -30 -12 1 49 60 61 60 4 0
-6 -13 -22 -30z m81 -18 c-16 -15 -25 -20 -21 -12 13 25 38 50 44 45 3 -3 -8
-18 -23 -33z m-746 -3 c0 -5 -11 -27 -25 -47 -29 -43 -34 -31 -5 15 l19 32
-27 4 c-24 4 -24 4 6 6 17 0 32 -4 32 -10z m3546 -35 c-4 -10 1 -25 11 -36 15
-17 15 -18 0 -13 -18 8 -32 40 -22 55 10 16 18 12 11 -6z m52 -8 c2 -10 -1
-23 -8 -30 -8 -8 -9 -6 -4 8 5 13 1 23 -12 33 -19 14 -19 15 1 11 11 -2 21
-12 23 -22z m-3608 -117 c0 -10 -4 -19 -10 -19 -5 0 -10 5 -10 11 0 8 -5 8
-15 -1 -8 -7 -12 -16 -9 -21 3 -5 0 -9 -5 -9 -16 0 -14 7 11 40 23 31 38 31
38 -1z m3610 19 c0 -10 20 -12 75 -10 61 3 76 1 81 -12 3 -9 -15 -53 -43 -103
-26 -48 -49 -91 -51 -94 -2 -4 8 -9 22 -13 18 -4 28 -16 35 -43 6 -20 8 -40 5
-45 -3 -5 2 -15 12 -23 25 -18 16 -24 -45 -32 -45 -5 -51 -8 -51 -29 0 -13 3
-24 8 -25 55 -5 89 -22 97 -50 11 -34 -4 -68 -38 -89 -22 -14 -27 -20 -14 -20
10 0 15 -5 12 -10 -8 -13 -65 -13 -65 0 0 6 6 10 13 11 6 0 -3 5 -20 10 -41
12 -44 33 -4 24 26 -5 29 -3 33 24 3 21 0 31 -9 31 -7 0 -13 5 -13 10 0 6 5
10 10 10 6 0 10 5 10 10 0 6 -11 10 -25 10 -23 0 -25 4 -25 43 1 118 18 186
70 274 54 91 55 93 41 93 -5 0 -14 -12 -20 -28 -6 -15 -23 -41 -37 -57 -24
-28 -23 -26 5 26 17 31 31 59 31 63 0 3 -22 6 -50 6 -29 0 -50 5 -50 11 0 5
-4 7 -10 4 -5 -3 -7 0 -4 9 4 10 -3 16 -23 19 -27 4 -27 4 5 6 20 0 32 -4 32
-11z m-1580 -65 c32 -28 39 -46 15 -37 -8 4 -12 10 -9 15 3 5 0 9 -6 9 -12 0
-40 24 -40 34 0 11 10 6 40 -21z m-2029 4 c-6 -8 -8 -17 -4 -20 3 -4 2 -7 -4
-7 -6 0 -13 9 -16 20 -4 15 0 20 15 20 16 0 18 -3 9 -13z m2004 -27 c3 -5 1
-10 -4 -10 -6 0 -11 5 -11 10 0 6 2 10 4 10 3 0 8 -4 11 -10z m-901 -51 c10
-17 31 -45 46 -62 15 -18 37 -50 48 -71 l21 -39 -31 -36 c-28 -32 -194 -171
-204 -171 -14 0 1 35 32 75 19 26 32 50 29 53 -4 4 -11 0 -16 -9 -4 -9 -20
-24 -34 -33 l-26 -17 14 33 c8 18 23 50 32 70 10 21 15 41 11 45 -4 5 -39 -9
-76 -29 -38 -21 -71 -34 -74 -30 -3 5 24 41 61 81 36 39 63 75 59 78 -15 15
-44 11 -94 -13 -64 -30 -94 -30 -65 1 10 11 34 28 53 37 31 15 177 67 190 68
3 0 14 -14 24 -31z m-1109 1 c9 -15 -5 -51 -17 -44 -7 4 -6 9 2 14 17 10 2 33
-17 26 -8 -3 -11 -1 -8 4 8 13 32 13 40 0z m3569 -14 c-3 -8 4 -16 20 -20 15
-4 26 -14 26 -23 0 -15 -1 -15 -12 -1 -20 24 -48 30 -49 10 0 -9 -3 -12 -5 -5
-3 7 0 21 6 32 12 24 22 28 14 7z m-3581 -73 c-7 -2 -21 -2 -30 0 -10 3 -4 5
12 5 17 0 24 -2 18 -5z m1797 -59 c0 -8 -5 -12 -10 -9 -6 4 -8 11 -5 16 9 14
15 11 15 -7z m-1803 0 c-3 -3 -12 -4 -19 -1 -8 3 -5 6 6 6 11 1 17 -2 13 -5z
m-7 -84 c13 -8 13 -10 -2 -10 -9 0 -20 5 -23 10 -8 13 5 13 25 0z m3 -57 c-7
-2 -13 -11 -13 -18 0 -7 6 -16 13 -18 7 -3 5 -6 -5 -6 -13 -1 -18 7 -18 24 0
17 5 25 18 24 10 0 12 -3 5 -6z m4 -89 c-3 -3 -12 -4 -19 -1 -8 3 -5 6 6 6 11
1 17 -2 13 -5z m-27 -94 c-5 -22 -8 -27 -9 -13 -1 21 9 56 14 51 2 -2 0 -19
-5 -38z"/>
<path d="M1880 3191 c0 -5 5 -13 10 -16 6 -3 10 -2 10 4 0 5 -4 13 -10 16 -5
3 -10 2 -10 -4z"/>
<path d="M1860 3151 c-32 -8 -90 -43 -90 -54 0 -4 12 -20 26 -34 25 -25 25
-27 9 -39 -14 -11 -15 -14 -4 -18 8 -2 28 -9 44 -14 31 -10 27 -14 -27 -26
-45 -10 -32 -26 20 -26 68 0 91 8 85 30 -4 13 4 23 26 34 17 9 35 25 41 36 10
18 7 19 -40 13 -41 -5 -50 -3 -50 10 0 9 5 19 10 22 6 3 10 22 10 41 0 36 -7
39 -60 25z"/>
<path d="M1680 3020 c0 -5 21 -9 48 -9 42 1 44 2 17 9 -44 11 -65 11 -65 0z"/>
<path d="M3242 3778 c-19 -19 -14 -35 14 -42 35 -9 64 2 64 24 0 29 -54 42
-78 18z"/>
<path d="M3232 3678 c-14 -14 -16 -44 -3 -52 5 -3 22 1 37 9 16 8 36 15 44 15
8 -1 0 -7 -17 -15 -38 -16 -43 -35 -10 -35 24 0 57 28 57 48 0 32 -83 55 -108
30z"/>
<path d="M3245 3559 c-9 -14 24 -49 46 -49 20 0 43 35 34 50 -8 13 -72 13 -80
-1z"/>
<path d="M1206 3768 c-24 -34 -21 -123 4 -148 57 -57 117 21 90 119 -15 55
-65 71 -94 29z"/>
<path d="M607 3592 c-34 -36 -34 -42 3 -42 28 0 30 3 30 35 0 19 -1 35 -3 35
-2 0 -15 -13 -30 -28z"/>
<path d="M2815 3399 c-9 -14 -3 -19 29 -25 21 -3 26 -1 26 16 0 15 -7 20 -24
20 -14 0 -28 -5 -31 -11z"/>
<path d="M2885 3315 c0 -43 1 -45 34 -51 28 -6 38 -3 53 16 10 12 18 28 18 35
0 25 -31 45 -68 45 l-37 0 0 -45z"/>
<path d="M2811 3336 c-9 -11 -8 -18 5 -30 24 -24 58 -17 62 14 l4 25 -28 -25
c-20 -17 -23 -18 -11 -4 17 21 14 34 -8 34 -7 0 -18 -6 -24 -14z"/>
<path d="M3246 3437 c-22 -16 -34 -105 -19 -132 9 -15 15 -13 51 22 59 56 54
89 -13 85 -25 -1 -27 0 -12 9 10 6 32 7 50 3 28 -6 30 -5 18 10 -16 19 -51 21
-75 3z"/>
<path d="M3297 3330 l-38 -40 35 0 c29 0 37 4 42 24 13 52 0 57 -39 16z"/>
<path d="M1206 3434 c-11 -11 -16 -34 -16 -78 0 -70 17 -96 63 -96 36 0 57 34
57 95 0 63 -20 95 -60 95 -16 0 -36 -7 -44 -16z"/>
<path d="M3916 3434 c-24 -24 -22 -135 3 -158 27 -24 72 -17 89 14 16 30 11
122 -7 144 -17 21 -65 20 -85 0z"/>
<path d="M366 3395 c-3 -10 1 -15 13 -15 10 0 24 -7 31 -15 9 -10 9 -15 1 -15
-6 0 -11 5 -11 10 0 16 -30 11 -37 -6 -8 -21 13 -64 32 -64 21 0 19 27 -2 39
-10 6 -13 11 -6 11 6 0 18 -9 26 -20 8 -11 17 -17 20 -13 9 8 9 66 1 87 -8 20
-60 21 -68 1z"/>
<path d="M597 3403 c-4 -3 -7 -28 -7 -55 0 -36 4 -50 16 -55 38 -14 64 35 50
93 -5 17 -13 24 -30 24 -12 0 -26 -3 -29 -7z"/>
<path d="M2813 3178 c-7 -13 26 -40 38 -32 5 3 9 11 9 18 0 17 -38 28 -47 14z"/>
<path d="M2817 3123 c-13 -12 -7 -41 9 -47 25 -9 41 -7 24 4 -13 8 -12 10 3
10 21 0 23 26 1 34 -20 8 -29 8 -37 -1z"/>
<path d="M2898 3086 c-8 -43 74 -67 87 -26 9 29 -12 50 -50 50 -26 0 -34 -5
-37 -24z"/>
<path d="M2900 3000 c-16 -16 -18 -24 -9 -44 14 -30 45 -39 78 -23 38 18 38
43 -1 67 -41 25 -43 25 -68 0z"/>
<path d="M2821 2961 c-7 -5 -10 -14 -7 -20 4 -6 2 -11 -3 -11 -16 0 -13 -32 5
-58 28 -41 64 -24 64 31 0 19 -1 19 -13 4 -11 -16 -12 -13 -12 19 0 39 -10 50
-34 35z"/>
<path d="M3256 2954 c-13 -34 16 -45 50 -19 16 13 17 16 4 25 -22 15 -47 12
-54 -6z"/>
<path d="M3283 2903 c-24 -3 -33 -9 -33 -22 0 -45 62 -51 74 -8 8 29 7 37 -1
35 -5 0 -23 -3 -40 -5z"/>
<path d="M3928 3036 c-21 -24 -34 -46 -31 -50 4 -3 24 -6 45 -6 38 0 38 0 38
40 0 22 0 43 1 47 2 21 -21 8 -53 -31z"/>
<path d="M375 2960 c-4 -6 -1 -17 5 -25 14 -17 35 -21 25 -5 -4 6 1 7 10 3 13
-4 16 -1 13 13 -4 21 -42 31 -53 14z"/>
<path d="M393 2892 c-24 -4 -31 -26 -11 -38 6 -4 18 2 26 12 14 18 14 18 8 1
-4 -13 -2 -17 6 -15 18 6 22 35 6 40 -7 2 -23 2 -35 0z"/>
<path d="M603 2963 c-18 -7 -16 -30 3 -37 31 -12 45 -7 42 16 -3 23 -22 31
-45 21z"/>
<path d="M595 2893 c-19 -18 -3 -53 24 -53 23 0 45 25 38 43 -8 21 -45 27 -62
10z"/>
<path d="M573 2628 c-53 -37 -50 -48 12 -48 l55 0 0 35 c0 42 -20 46 -67 13z"/>
<path d="M658 2604 c-12 -11 4 -34 24 -34 13 0 18 6 16 17 -3 18 -29 29 -40
17z"/>
<path d="M2921 2705 c-17 -20 -31 -40 -31 -45 0 -6 18 -10 39 -10 l40 0 -3 40
c-2 22 -6 43 -8 46 -3 2 -19 -11 -37 -31z"/>
<path d="M2826 2643 c-11 -11 -6 -23 9 -23 8 0 15 4 15 9 0 13 -16 22 -24 14z"/>
<path d="M3230 2744 c-6 -14 -10 -37 -10 -52 l0 -26 36 35 c24 23 32 26 23 12
-8 -13 -17 -23 -21 -23 -5 0 -8 -7 -8 -15 0 -18 40 -20 59 -2 11 10 13 10 7 0
-4 -8 -1 -13 8 -13 21 0 21 58 0 88 -23 33 -81 31 -94 -4z"/>
<path d="M3220 2635 c0 -17 35 -55 49 -55 42 0 83 42 62 63 -7 7 -14 2 -20
-14 -10 -24 -10 -24 -10 -1 -1 19 -6 22 -41 22 -29 0 -40 -4 -40 -15z"/>
<path d="M3913 2664 c-9 -24 21 -48 51 -40 28 7 33 25 14 44 -17 17 -58 15
-65 -4z"/>
<path d="M1100 2640 c-13 -9 -13 -11 0 -20 18 -11 39 5 24 20 -6 6 -15 6 -24
0z"/>
<path d="M944 2599 c-8 -14 5 -29 27 -29 10 0 19 6 19 14 0 16 -37 28 -46 15z"/>
<path d="M3258 2453 c7 -3 16 -2 19 1 4 3 -2 6 -13 5 -11 0 -14 -3 -6 -6z"/>
<path d="M3278 2266 c-25 -31 -27 -46 -6 -46 9 0 48 59 48 73 0 16 -16 5 -42
-27z"/>
<path d="M3250 2200 c0 -5 5 -10 10 -10 6 0 10 5 10 10 0 6 -4 10 -10 10 -5 0
-10 -4 -10 -10z"/>
<path d="M3710 2445 c0 -14 6 -25 13 -26 6 0 3 -4 -8 -9 -17 -8 -15 -9 10 -7
23 1 31 7 33 26 4 23 -11 41 -35 41 -7 0 -13 -11 -13 -25z"/>
<path d="M3965 2420 c-9 -14 -6 -17 20 -22 13 -2 20 3 20 12 0 18 -30 26 -40
10z"/>
<path d="M3925 2290 c-3 -5 -1 -10 4 -10 6 0 11 5 11 10 0 6 -2 10 -4 10 -3 0
-8 -4 -11 -10z"/>
<path d="M3960 2271 c-7 -15 -7 -21 0 -21 12 0 25 28 17 36 -3 3 -10 -4 -17
-15z"/>
<path d="M3927 2226 c-25 -19 -11 -46 24 -46 37 0 50 27 24 46 -23 17 -25 17
-48 0z"/>
<path d="M1106 2471 c-4 -7 -5 -15 -2 -18 9 -9 19 4 14 18 -4 11 -6 11 -12 0z"/>
<path d="M377 2473 c-12 -11 -8 -23 8 -23 8 0 15 7 15 15 0 16 -12 20 -23 8z"/>
<path d="M224 2336 c-8 -35 2 -58 23 -54 25 5 25 71 1 76 -12 2 -19 -5 -24
-22z"/>
<path d="M367 2314 c-11 -11 5 -34 24 -34 12 0 19 7 19 20 0 19 -28 28 -43 14z"/>
<path d="M3825 2310 c-9 -15 4 -30 26 -30 23 0 26 25 3 34 -21 8 -22 8 -29 -4z"/>
<path d="M3920 2055 c0 -27 10 -31 40 -15 25 14 15 40 -16 40 -19 0 -24 -5
-24 -25z"/>
<path d="M594 2069 c-10 -17 13 -36 27 -22 12 12 4 33 -11 33 -5 0 -12 -5 -16
-11z"/>
<path d="M527 1990 c-22 -26 -22 -45 3 -70 21 -21 59 -20 88 3 10 8 6 13 -17
23 -18 8 -31 21 -33 35 -4 30 -20 34 -41 9z"/>
<path d="M628 1988 c12 -12 24 -19 28 -15 10 10 -16 37 -34 37 -13 0 -12 -4 6
-22z"/>
<path d="M592 1978 c3 -7 13 -15 24 -17 16 -3 17 -1 5 13 -16 19 -34 21 -29 4z"/>
<path d="M3710 2034 l0 -47 25 23 c31 29 30 64 -2 68 -21 3 -23 -1 -23 -44z"/>
<path d="M3720 1815 c-12 -14 -12 -18 1 -25 10 -7 15 -5 17 5 6 28 -3 38 -18
20z"/>
<path d="M387 2032 c-22 -24 -21 -32 3 -32 15 0 20 7 20 25 0 30 -2 30 -23 7z"/>
<path d="M3538 2024 c-12 -11 4 -34 24 -34 13 0 18 6 16 17 -3 18 -29 29 -40
17z"/>
<path d="M3543 1884 c-18 -8 -4 -34 19 -34 13 0 18 6 16 17 -3 18 -16 24 -35
17z"/>
<path d="M398 1790 c12 -5 22 -17 22 -27 -1 -17 -1 -17 -11 0 -11 18 -39 24
-39 7 0 -13 48 -32 61 -24 5 3 9 13 9 24 0 19 -19 30 -48 29 -12 0 -10 -3 6
-9z"/>
<path d="M597 1793 c-12 -11 -8 -23 7 -23 7 0 19 -7 26 -15 17 -21 34 -4 25
24 -6 20 -43 29 -58 14z"/>
<path d="M597 1624 c-12 -12 -8 -64 6 -64 40 1 58 13 55 39 -2 19 -9 27 -28
29 -14 2 -29 0 -33 -4z"/>
<path d="M546 1587 c-14 -10 -16 -16 -7 -22 15 -9 35 8 30 24 -3 8 -10 7 -23
-2z"/>
<path d="M598 1544 c-11 -11 4 -34 22 -34 10 0 23 7 30 15 10 12 10 15 -3 15
-8 0 -22 2 -29 5 -8 3 -17 3 -20 -1z"/>
<path d="M3944 1596 c-28 -24 -28 -25 -7 -26 13 0 27 9 33 21 17 31 6 33 -26
5z"/>
<path d="M402 1588 c-15 -15 -16 -38 -2 -38 12 0 23 25 18 40 -2 7 -7 7 -16
-2z"/>
<path d="M3932 1398 c-22 -22 -12 -33 34 -34 41 -1 45 1 42 20 -4 25 -55 35
-76 14z"/>
<path d="M3924 1346 c-13 -10 -14 -17 -5 -34 6 -12 18 -22 26 -22 16 0 47 39
40 50 -9 15 -44 18 -61 6z"/>
<path d="M3937 1145 l-27 -30 26 -3 c33 -4 36 0 32 34 l-3 29 -28 -30z"/>
<path d="M3942 1017 c-29 -31 -28 -36 8 -35 26 1 30 5 30 30 0 34 -10 35 -38
5z"/>
<path d="M3930 960 c0 -5 9 -10 20 -10 11 0 20 5 20 10 0 6 -9 10 -20 10 -11
0 -20 -4 -20 -10z"/>
<path d="M3915 919 c-9 -13 3 -62 17 -70 6 -4 19 -4 29 -2 15 4 19 15 19 44 0
36 -2 39 -29 39 -17 0 -33 -5 -36 -11z"/>
<path d="M383 1400 c-29 -12 -30 -38 -1 -42 12 -2 23 -10 25 -18 4 -12 3 -13
-5 -1 -10 14 -42 9 -42 -7 0 -4 6 -16 13 -26 9 -13 20 -16 40 -11 27 7 28 10
25 59 -3 54 -13 63 -55 46z m27 -90 c0 -5 -7 -7 -15 -4 -8 4 -15 8 -15 10 0 2
7 4 15 4 8 0 15 -4 15 -10z"/>
<path d="M3702 1398 c-16 -16 -15 -69 1 -92 32 -43 81 15 61 72 -10 30 -42 40
-62 20z"/>
<path d="M3694 1116 c-9 -24 16 -47 45 -44 20 2 26 9 26 28 0 21 -5 26 -33 28
-22 2 -34 -2 -38 -12z"/>
<path d="M3928 519 c-12 -7 -18 -22 -18 -49 0 -45 10 -54 50 -45 26 6 30 11
30 40 0 19 -7 41 -16 49 -18 19 -23 19 -46 5z"/>
<path d="M3960 259 c0 -51 0 -51 23 -37 28 19 33 50 12 72 -27 27 -35 19 -35
-35z"/>
<path d="M2890 4090 c0 -15 47 -42 66 -38 9 2 23 13 32 26 14 22 14 22 -42 22
-31 0 -56 -4 -56 -10z"/>
<path d="M3230 4090 c0 -6 10 -9 23 -7 12 2 16 2 10 0 -27 -9 1 -32 40 -33 12
0 8 30 -5 31 -7 1 -2 5 12 9 20 6 14 8 -27 9 -30 1 -53 -3 -53 -9z"/>
<path d="M2902 4024 c-27 -18 -28 -45 -4 -67 36 -33 102 -14 102 28 0 19 -9
28 -36 40 -44 18 -35 18 -62 -1z"/>
<path d="M3228 4005 c-9 -19 -9 -28 0 -37 9 -9 19 -5 42 17 38 36 38 45 0 45
-23 0 -33 -6 -42 -25z"/>
<path d="M2360 3996 c0 -33 32 -51 61 -36 13 7 19 19 17 33 -2 17 -11 23 -40
25 -35 3 -38 1 -38 -22z"/>
<path d="M3286 3986 c-27 -23 -26 -34 4 -31 8 1 23 3 33 3 13 2 17 9 15 24 -4
30 -18 31 -52 4z"/>
</g>
</svg>
